<svg xmlns="http://www.w3.org/2000/svg" width="150" height="43" viewBox="0 0 150 43"><g><g><g><g><g><g><path fill="#007f6e" d="M5.079 12.163c.602.027 1.21.078 1.805.154a.378.378 0 0 0 .4-.237 14.842 14.842 0 0 1 3.366-5.157 14.894 14.894 0 0 1 10.604-4.385c4.01 0 7.776 1.558 10.604 4.385 2.366 2.367 3.802 5.3 4.267 8.72-4.373.56-8.218 2.111-11.752 4.737-2.71-3.947-6.162-6.812-10.549-8.756l.093-.114a9.484 9.484 0 0 1 7.345-3.477c1.944 0 3.816.59 5.413 1.708a9.53 9.53 0 0 1 3.258 3.952c.079.177.28.266.463.205a28 28 0 0 1 1.698-.505.379.379 0 0 0 .252-.51c-1.852-4.413-6.31-7.38-11.092-7.38-4.72 0-9.023 2.78-10.963 7.08a.377.377 0 0 0 .233.516c5.526 1.693 10.252 5.603 12.969 10.727a.377.377 0 0 0 .59.1 22.07 22.07 0 0 1 14.324-5.923.377.377 0 0 0 .364-.374 17.434 17.434 0 0 0-4.99-12.364C30.465 1.87 26.016 0 21.254 0 13.841 0 7.204 4.686 4.74 11.661a.375.375 0 0 0 .339.502z"/></g><g><path fill="#007f6e" d="M42.257 20.778a.377.377 0 0 0-.319-.314 19.716 19.716 0 0 0-2.809-.203c-6.708 0-12.807 3.414-16.314 9.134l-.144.235-.058-.27C20.747 20.692 12.956 14.4 4.09 14.4c-1.183 0-2.38.112-3.554.331a.377.377 0 0 0-.303.313c-.8 5.177.483 10.291 3.612 14.402a19.192 19.192 0 0 0 12.9 7.39c.189.023.366-.1.411-.286.88-3.668.18-7.56-1.919-10.68a13.582 13.582 0 0 0-9.027-5.788.375.375 0 0 0-.431.443c.132.686.302 1.311.536 1.968.042.12.143.21.267.24 5.082 1.222 8.62 5.882 8.412 11.083l-.006.137C7.25 31.94 2.15 24.983 2.562 17.003c.479-.04.964-.06 1.444-.06 4.887 0 9.483 2.11 12.609 5.792 3.124 3.677 4.463 8.542 3.675 13.35-.371 2.283-.384 4.255-.039 6.394.027.162.155.29.318.313.636.093 1.23.15 1.872.18l.017.001a.378.378 0 0 0 .37-.447c-.908-4.848.329-9.798 3.395-13.583 3.165-3.906 7.913-6.146 13.026-6.146.23 0 .46.005.691.014.424 7.876-4.348 14.692-11.895 16.992l-.003-.144c-.115-4.966 3.128-9.442 7.887-10.887a.378.378 0 0 0 .244-.23c.247-.677.427-1.322.567-2.028a.375.375 0 0 0-.45-.44 13.842 13.842 0 0 0-8.621 5.993c-1.992 3.1-2.626 6.8-1.79 10.414a.377.377 0 0 0 .427.288c5-.785 9.577-3.579 12.556-7.665 3.01-4.127 4.215-9.215 3.395-14.326z"/></g></g></g></g><g><g><g><path fill="#007f6e" d="M61.262 19.616V5.27a.407.407 0 0 0-.406-.406h-1.963a.406.406 0 0 0-.406.406v8.816h-.022l-8.8-9.352a.265.265 0 0 0-.194-.083h-.42a.406.406 0 0 0-.404.405v14.345c0 .223.182.406.405.406h1.942a.406.406 0 0 0 .406-.406v-9.179h.021l8.844 9.71c.05.056.122.088.196.088h.395a.407.407 0 0 0 .406-.405z"/></g><g><path fill="#007f6e" d="M86.846 37.706v-12.86c0-.2-.164-.364-.364-.364h-1.76a.363.363 0 0 0-.364.363v7.904h-.02l-7.89-8.384a.238.238 0 0 0-.173-.074h-.376c-.2 0-.363.163-.363.363v12.86c0 .2.163.364.363.364h1.742c.21 0 .363-.172.363-.363v-8.23h.02l7.928 8.707c.045.05.109.078.176.078h.354c.2 0 .364-.164.364-.364z"/></g><g><path fill="#007f6e" d="M136.976 37.706v-12.86c0-.2-.164-.364-.364-.364h-1.76a.363.363 0 0 0-.364.363v7.904h-.02l-7.89-8.384a.24.24 0 0 0-.173-.074h-.376c-.2 0-.363.163-.363.363v12.86c0 .2.163.364.363.364h1.742c.21 0 .363-.172.363-.363v-8.23h.02l7.929 8.707c.044.05.108.078.175.078h.354c.2 0 .364-.164.364-.364z"/></g><g><path fill="#007f6e" d="M90.7 7.021v-1.75a.405.405 0 0 0-.406-.406H80.229a.405.405 0 0 0-.405.406v1.75c0 .213.17.405.405.405h3.634v11.976a.42.42 0 0 0 .406.405h1.985a.42.42 0 0 0 .405-.405V7.426h3.635a.405.405 0 0 0 .405-.405z"/></g><g><path fill="#007f6e" d="M106.47 14.15V5.27a.42.42 0 0 0-.406-.405h-2.027a.406.406 0 0 0-.407.406v8.751c0 1.793-1.259 3.224-3.116 3.224-1.857 0-3.095-1.43-3.095-3.245v-8.73a.405.405 0 0 0-.406-.406h-2.028a.42.42 0 0 0-.405.406v8.88c0 3.244 2.583 5.87 5.934 5.87 3.372 0 5.955-2.626 5.955-5.87z"/></g><g><path fill="#007f6e" d="M136.57 4.865h-8.687a.405.405 0 0 0-.405.406V19.4c0 .214.17.406.405.406h8.688a.406.406 0 0 0 .405-.405v-1.75a.406.406 0 0 0-.405-.406h-6.319V13.51h5.273a.405.405 0 0 0 .405-.405v-1.772a.42.42 0 0 0-.405-.405h-5.273V7.426h6.319a.405.405 0 0 0 .405-.405v-1.75a.405.405 0 0 0-.405-.406z"/></g><g><path fill="#007f6e" d="M149.594 17.451h-7.705c-.235 0-.406.133-.406.316v1.456c0 .166.171.299.406.299h7.705c.235 0 .406-.133.406-.3v-1.455c0-.183-.171-.316-.406-.316z"/></g><g><path fill="#007f6e" d="M53.224 29.955c-1.55-.632-2.259-1.244-2.259-2.143 0-.613.594-1.34 1.685-1.34 1.052 0 2.507.957 2.66 1.053.23.153.517 0 .67-.23l.727-1.09c.134-.193.077-.518-.115-.633-.382-.287-1.875-1.282-3.827-1.282-3.044 0-4.307 1.971-4.307 3.674 0 2.26 1.8 3.408 3.599 4.134 1.607.652 2.43 1.322 2.43 2.297 0 .823-.746 1.474-1.741 1.474-1.244 0-2.795-1.129-2.89-1.186a.443.443 0 0 0-.651.134l-.69 1.186c-.172.306-.076.402.097.574.382.364 1.798 1.493 4.21 1.493 2.699 0 4.402-1.818 4.402-3.79 0-2.468-2.144-3.579-4-4.325z"/></g><g><path fill="#007f6e" d="M70.806 24.481h-1.818a.364.364 0 0 0-.364.364v7.847c0 1.608-1.13 2.89-2.794 2.89-1.665 0-2.776-1.282-2.776-2.909v-7.828a.363.363 0 0 0-.363-.364h-1.818a.377.377 0 0 0-.364.364v7.962c0 2.909 2.316 5.263 5.321 5.263 3.024 0 5.34-2.354 5.34-5.263v-7.962a.377.377 0 0 0-.364-.364z"/></g><g><path fill="#007f6e" d="M95.378 29.955c-1.55-.632-2.259-1.244-2.259-2.143 0-.613.593-1.34 1.685-1.34 1.052 0 2.506.957 2.66 1.053.23.153.516 0 .67-.23l.727-1.09c.133-.193.077-.518-.115-.633-.383-.287-1.876-1.282-3.828-1.282-3.043 0-4.306 1.971-4.306 3.674 0 2.26 1.799 3.408 3.598 4.134 1.608.652 2.43 1.322 2.43 2.297 0 .823-.746 1.474-1.741 1.474-1.244 0-2.795-1.129-2.89-1.186a.443.443 0 0 0-.651.134l-.688 1.186c-.173.306-.078.402.095.574.383.364 1.8 1.493 4.211 1.493 2.698 0 4.401-1.818 4.401-3.79 0-2.468-2.143-3.579-4-4.325z"/></g><g><path fill="#007f6e" d="M113.812 24.481h-1.76a.363.363 0 0 0-.365.364v6.106c-1.524-1.15-3.54-1.478-5.998-1.478-.082 0-.16.005-.241.006v-4.634a.363.363 0 0 0-.363-.364h-1.78c-.2 0-.364.164-.364.364v12.67c0 .2.163.364.363.364h1.78c.21 0 .364-.172.364-.364V31.721l.005-.005c2.756-.015 4.714.387 5.876 1.875.245.313.358.71.358 1.108v2.816c0 .192.153.364.364.364h1.76c.2 0 .365-.164.365-.364v-12.67c0-.2-.164-.364-.364-.364z"/></g><g><path fill="#007f6e" d="M119.22 37.879a.538.538 0 0 1-.538-.538V25.019c0-.297.24-.538.538-.538h1.431c.297 0 .538.241.538.538v12.322c0 .297-.24.538-.538.538z"/></g><g><path fill="#007f6e" d="M149.636 24.481h-7.79a.363.363 0 0 0-.363.364v12.67c0 .192.153.364.363.364h7.79c.21 0 .364-.172.364-.364v-1.57a.364.364 0 0 0-.364-.363h-5.665v-3.35h4.727a.364.364 0 0 0 .364-.363v-1.588a.376.376 0 0 0-.364-.364h-4.727v-3.139h5.665c.21 0 .364-.172.364-.363v-1.57a.364.364 0 0 0-.364-.364z"/></g><g><path fill="#007f6e" d="M69.846 14.167l1.852-4.157h.064l2.135 4.696.06.135c-1.143-.435-2.447-.679-3.911-.679-.068 0-.133.004-.2.005zm6.2 5.31c.133.224.28.33.561.33h1.857c.32 0 .491-.277.363-.555L72.253 4.887c-.064-.129-.15-.235-.363-.235h-.214c-.192 0-.299.106-.363.235l-6.639 14.365c-.127.278.044.556.364.556h1.857a.643.643 0 0 0 .619-.428l1.046-2.305.286-.648c.36-.04.73-.067 1.115-.067 2.98 0 5.007 1.224 6.084 3.124z"/></g><g><g><path fill="#007f6e" d="M114.101 11.675V7.426h3.48c1.131 0 2.113.94 2.113 2.071 0 1.195-.982 2.178-2.113 2.178zm-2.796 7.727c0 .213.17.405.405.405h1.965a.42.42 0 0 0 .405-.405v-5.443h2.369l2.84 5.656c.042.086.148.192.341.192h2.241c.363 0 .513-.34.363-.619l-2.924-5.422c1.857-.747 3.159-2.348 3.159-4.311 0-2.54-2.092-4.59-4.654-4.59h-6.105a.405.405 0 0 0-.405.406z"/></g></g></g><g><path fill="#007f6e" d="M141.538 14.45l.599-1.069c.114-.219.428-.301.713-.137 0 0 1.256.712 2.654.712.856 0 1.399-.328 1.399-.931 0-.74-.628-1.095-2.198-1.78-1.769-.74-3.253-1.78-3.253-3.588 0-1.37 1.17-3.012 3.91-3.012 1.598 0 2.796.493 3.367.848.257.164.4.52.228.795l-.514.93c-.142.248-.513.33-.741.22 0 0-1.256-.575-2.34-.575-.97 0-1.284.41-1.284.822 0 .712.713 1.012 1.826 1.478 2.083.877 3.795 1.726 3.795 3.78 0 1.698-1.684 3.204-4.223 3.204-1.912 0-3.168-.657-3.767-1.123-.171-.11-.285-.355-.171-.574z"/></g></g></g></g></svg>